<svg width="210" height="210" viewBox="0 0 210 210" fill="none" xmlns="http://www.w3.org/2000/svg">
<rect width="210" height="210" fill="none"/>
<g filter="url(#filter0_d_8_2)">
<path d="M120 131.816C121.181 131.816 122.139 130.858 122.139 129.677C122.139 128.495 121.181 127.537 120 127.537C118.819 127.537 117.861 128.495 117.861 129.677C117.861 130.858 118.819 131.816 120 131.816Z" fill="#61DAFB"/>
</g>
<g filter="url(#filter1_d_8_2)">
<path d="M120 134.059C126.339 134.059 131.478 132.097 131.478 129.677C131.478 127.256 126.339 125.294 120 125.294C113.661 125.294 108.522 127.256 108.522 129.677C108.522 132.097 113.661 134.059 120 134.059Z" stroke="#61DAFB" shape-rendering="crispEdges"/>
</g>
<g filter="url(#filter2_d_8_2)">
<path d="M116.205 131.868C119.374 137.358 123.643 140.827 125.739 139.617C127.835 138.407 126.965 132.975 123.795 127.485C120.626 121.995 116.357 118.526 114.261 119.736C112.165 120.946 113.035 126.378 116.205 131.868Z" stroke="#61DAFB" shape-rendering="crispEdges"/>
</g>
<g filter="url(#filter3_d_8_2)">
<path d="M116.205 127.485C113.035 132.975 112.165 138.407 114.261 139.617C116.357 140.827 120.626 137.358 123.795 131.868C126.965 126.378 127.835 120.946 125.739 119.736C123.643 118.526 119.374 121.995 116.205 127.485Z" stroke="#61DAFB" shape-rendering="crispEdges"/>
</g>
<g filter="url(#filter4_d_8_2)">
<path d="M112.459 89.8407C109.792 85.9753 104.483 84.8427 100.667 87.2802L93.9388 91.6134C92.104 92.7706 90.8318 94.6664 90.4648 96.8084C90.1468 98.6058 90.4159 100.452 91.2722 102.053C90.685 102.939 90.2936 103.924 90.1223 104.958C89.7309 107.149 90.2446 109.414 91.5168 111.212C94.208 115.077 99.4924 116.21 103.309 113.772L110.037 109.464C111.872 108.306 113.144 106.411 113.511 104.269C113.829 102.471 113.56 100.625 112.703 99.0243C113.291 98.138 113.682 97.1531 113.853 96.1191C114.269 93.9032 113.755 91.6381 112.459 89.8407Z" fill="#FF3E00"/>
</g>
<path d="M100.006 111.581C97.8287 112.147 95.5535 111.286 94.2813 109.439C93.4985 108.356 93.2049 107.002 93.4251 105.672C93.474 105.45 93.5229 105.254 93.5719 105.032L93.6942 104.638L94.0367 104.884C94.844 105.475 95.7248 105.918 96.6789 106.214L96.9235 106.288L96.8991 106.534C96.8746 106.879 96.9725 107.248 97.1682 107.543C97.5596 108.11 98.2446 108.38 98.9052 108.208C99.052 108.159 99.1988 108.11 99.3211 108.036L106.024 103.727C106.367 103.505 106.587 103.185 106.661 102.791C106.734 102.398 106.636 101.979 106.416 101.659C106.024 101.093 105.339 100.846 104.679 101.019C104.532 101.068 104.385 101.117 104.263 101.191L101.694 102.841C101.278 103.112 100.813 103.308 100.324 103.432C98.1468 103.998 95.8716 103.136 94.5994 101.29C93.841 100.206 93.5229 98.8521 93.7676 97.5226C93.9878 96.2423 94.7706 95.0851 95.8716 94.3957L102.599 90.0871C103.015 89.8162 103.48 89.6193 103.969 89.4715C106.147 88.9053 108.422 89.767 109.694 91.6136C110.477 92.6969 110.771 94.051 110.55 95.3806C110.502 95.6021 110.453 95.7991 110.379 96.0207L110.257 96.4146L109.914 96.1684C109.107 95.5775 108.226 95.1343 107.272 94.8389L107.028 94.765L107.052 94.5188C107.076 94.1741 106.979 93.8048 106.783 93.5094C106.391 92.9431 105.706 92.6969 105.046 92.8692C104.899 92.9185 104.752 92.9677 104.63 93.0416L97.9266 97.3502C97.5841 97.5718 97.3639 97.8919 97.2905 98.2858C97.2171 98.6798 97.315 99.0983 97.5352 99.4184C97.9266 99.9847 98.6116 100.231 99.2722 100.059C99.419 100.009 99.5658 99.96 99.6881 99.8862L102.257 98.2366C102.673 97.9657 103.138 97.7688 103.627 97.6211C105.804 97.0548 108.08 97.9165 109.352 99.7631C110.135 100.846 110.428 102.201 110.208 103.53C109.988 104.81 109.205 105.968 108.104 106.657L101.376 110.966C100.96 111.236 100.495 111.433 100.006 111.581Z" fill="white"/>
<g filter="url(#filter5_d_8_2)">
<path d="M138.789 76.0003C137.221 76.0076 135.724 76.1422 134.406 76.3767C130.524 77.0666 129.819 78.5104 129.819 81.1732V84.6899H138.993V85.8621H129.819H126.376C123.71 85.8621 121.376 87.474 120.646 90.5403C119.804 94.055 119.766 96.2482 120.646 99.9181C121.298 102.65 122.855 104.596 125.521 104.596H128.675V100.381C128.675 97.3349 131.295 94.6485 134.406 94.6485H143.568C146.119 94.6485 148.155 92.5361 148.155 89.9595V81.1732C148.155 78.6725 146.058 76.7941 143.568 76.3767C141.993 76.1129 140.358 75.993 138.789 76.0003ZM133.828 78.8287C134.776 78.8287 135.55 79.6198 135.55 80.5924C135.55 81.5617 134.776 82.3454 133.828 82.3454C132.878 82.3454 132.107 81.5617 132.107 80.5924C132.107 79.6198 132.878 78.8287 133.828 78.8287Z" fill="url(#paint0_linear_8_2)"/>
</g>
<g filter="url(#filter6_d_8_2)">
<path d="M149.299 85.8621V89.9595C149.299 93.1362 146.622 95.8099 143.568 95.8099H134.406C131.896 95.8099 129.819 97.9706 129.819 100.499V109.285C129.819 111.786 131.981 113.257 134.406 113.974C137.31 114.833 140.094 114.988 143.568 113.974C145.878 113.302 148.155 111.948 148.155 109.285V105.769H138.993V104.596H148.155H152.742C155.408 104.596 156.401 102.726 157.329 99.9181C158.286 97.0277 158.246 94.2481 157.329 90.5403C156.67 87.8706 155.411 85.8621 152.742 85.8621H149.299ZM144.146 108.113C145.097 108.113 145.867 108.897 145.867 109.866C145.867 110.839 145.097 111.63 144.146 111.63C143.198 111.63 142.425 110.839 142.425 109.866C142.425 108.897 143.198 108.113 144.146 108.113Z" fill="url(#paint1_linear_8_2)"/>
</g>
<g filter="url(#filter7_d_8_2)">
<path id="flask" d="M69.1354 156.197C63.7653 151.965 58.0355 147.909 54.1211 142.195C45.8809 132.118 39.5381 120.454 35.2018 108.194C32.5801 100.221 31.6823 91.6745 28.3005 84.0114C24.7678 78.4438 28.9091 72.3619 34.9963 70.5931C37.7045 70.07 42.4693 67.5088 36.7175 69.3417C31.56 73.13 31.0632 65.8989 36.3507 65.4409C39.9594 64.9614 41.2879 62.0036 40.0525 59.3409C36.1772 56.8084 49.4461 54.0298 42.769 50.2521C35.8181 42.7374 52.4958 41.2907 48.3803 49.8267C47.3966 56.3896 60.0381 48.6211 57.1025 56.2015C60.085 59.8424 68.2679 57.0318 68.0625 62.1365C72.4059 62.4356 73.8969 66.0942 77.9699 66.3756C82.1983 68.2879 89.8558 69.7919 91.2922 74.5617C87.1008 77.8848 77.3977 67.6964 76.9289 76.8967C78.1968 90.4904 77.8735 104.493 82.8366 117.437C85.184 125.274 90.878 131.443 96.0173 137.548C100.937 143.526 107.6 147.737 114.393 151.279C120.35 154.093 126.772 155.958 133.266 157.131C135.898 155.114 140.547 147.614 144.653 150.774C144.851 154.332 136.504 158.207 144.261 157.813C148.821 156.435 151.979 161.341 155.732 156.914C159.19 161.017 170.102 154.295 167.643 162.68C164.315 164.831 159.463 163.531 156.132 166.49C150.64 163.741 146.267 168.947 140.184 168.291C133.431 169.502 126.559 169.99 119.713 170C108.479 169.112 97.0088 168.738 86.3225 164.819C80.3008 163.067 74.4267 159.632 69.1354 156.197ZM78.622 160.317C84.5 162.86 90.2485 165.545 96.6915 166.356C106.913 167.778 117.469 169.971 127.726 167.973C123.084 165.874 118.283 168.788 113.658 166.472C108.112 167.666 102.159 166.165 96.518 165.426C90.1069 162.565 83.1858 160.599 77.1817 156.882C69.6757 154.137 81.0609 160.404 83.0883 160.913C87.7777 163.578 77.9303 159.545 76.5395 158.437C72.6114 156.229 72.1113 156.691 76.1518 158.932C76.9653 159.408 77.7689 159.91 78.622 160.317ZM67.4357 152.398C73.1335 154.512 67.4103 148.386 64.8029 148.74C63.6463 146.73 60.384 145.46 62.6852 144.381C58.5472 145.821 58.3489 138.908 56.4046 139.897C52.0248 138.512 54.7005 133.604 49.4819 130.589C49.006 127.413 44.299 124.661 42.8009 119.873C42.1383 117.42 37.4815 110.381 40.3411 116.932C42.7756 123.238 47.0579 128.644 50.6236 134.038C53.3897 139.174 56.6602 144.547 61.6987 147.751C63.399 149.385 65.0376 151.885 67.4357 152.398ZM51.0274 134.348C51.2245 133.485 52.0683 136.213 51.0274 134.348V134.348ZM74.261 154.93C72.4456 154.216 75.5211 154.364 74.261 154.93V154.93ZM77.3508 156.06C75.9392 156.933 77.0308 154.501 77.3508 156.06V156.06ZM81.2228 157.677C78.3808 156.568 83.063 155.918 81.2228 157.677V157.677ZM87.857 161.381C84.273 160.757 88.9767 159.725 87.857 161.381V161.381ZM75.1185 152.485C71.4195 152.459 77.9771 150.63 75.1185 152.485V152.485ZM78.0211 153.935C76.9873 154.375 77.938 152.957 78.0211 153.935V153.935ZM92.5315 163.008C94.8651 164.484 106.157 166.241 99.0868 163.614C97.901 163.864 85.9766 160.234 92.5315 163.008ZM69.4961 145.034C65.872 143.949 69.2692 144.054 69.4961 145.034V145.034ZM76.2487 148.982C72.6003 148.033 78.0096 147.752 76.2487 148.982V148.982ZM81.9317 152.471C77.841 151.515 84.4565 151.518 81.9317 152.471V152.471ZM66.7444 142.036C69.4818 144.139 77.7876 142.307 70.9364 140.781C67.8212 139.117 60.7982 137.978 65.5856 141.784L66.7444 142.036ZM85.7827 153.675C80.9992 152.563 86.924 151.73 85.7827 153.675V153.675ZM79.9979 149.071C86.6899 150.966 74.3689 144.828 78.3455 148.371L79.2284 148.772L79.9979 149.071ZM91.5962 155.786C85.8692 154.909 97.9346 155.846 91.5962 155.786V155.786ZM64.3067 138.363C62.7436 138.461 64.0577 137.18 64.3067 138.363V138.363ZM102.318 161.811C100.25 163.402 102.487 159.675 102.318 161.811V161.811ZM75.1257 144.998C73.1451 144.951 74.7401 143.872 75.1257 144.998V144.998ZM64.9076 137.62C59.923 136.014 68.5461 137.4 64.9076 137.62V137.62ZM52.8025 129.783C48.8446 126.642 52.3492 128.034 52.8025 129.783V129.783ZM84.5798 149.985C83.9134 149.223 84.2659 150.15 84.5798 149.985V149.985ZM104.356 162.143C103.279 162.582 104.295 160.977 104.356 162.143V162.143ZM82.8294 148.173C79.7253 147.718 83.1864 146.672 82.8294 148.173V148.173ZM68.095 138.818C63.7548 136.985 70.8037 138.529 68.095 138.818V138.818ZM93.0189 154.332C88.9057 153.516 97.2395 152.658 93.0189 154.332V154.332ZM80.0563 145.518C84.918 146.145 74.2687 142.202 78.9867 145.164L80.0563 145.518ZM96.9542 155.926C101.497 153.21 99.9984 162.294 104.659 156.695C109.254 153.332 100.69 160.851 106.352 157.294C110.45 154.548 116.5 158.596 120.322 159.913C123.07 159.78 125.742 162.294 128.562 160.764C133.986 159.299 117.952 158.593 122.155 155.998C117.192 157.446 113.526 154.274 111.084 151.088C105.516 149.8 99.0797 146.95 96.2993 142.011C95.1647 140.16 97.9352 142.275 95.3201 139.244C91.9669 136.256 90.2925 132.861 88.0409 129.228C85.3504 127.792 85.0337 123.56 84.7632 129.088C84.7853 125.599 81.5147 123.25 80.715 124.224C80.7007 120.865 84.2163 122.55 81.756 120.064C81.2272 116.582 79.4835 112.953 78.9608 109.021C78.1478 107.126 78.8451 103.068 76.181 107.357C75.2116 111.892 75.8604 101.787 77.3696 105.117C79.3502 101.718 76.6558 102.118 76.5478 102.588C77.8377 99.7199 77.3657 95.6498 76.2096 97.2013C76.8975 94.1595 77.2974 86.0098 75.1835 87.4564C76.4652 84.2745 77.6147 72.9015 72.0457 77.2393C69.7914 77.2713 65.8841 78.0586 64.0401 78.9784C69.8277 82.1752 63.4563 80.1326 61.0973 79.6239C60.7911 82.5824 58.4574 81.3051 55.5399 81.3338C60.2006 81.9109 53.2707 86.1063 50.6027 84.4765C47.1306 86.1361 53.5957 90.2852 50.671 91.5691C51.0318 93.4996 45.3549 90.87 45.7983 95.3364C42.4302 93.914 45.3372 100.633 47.0226 98.3599C52.753 99.9147 51.0566 103.454 51.2003 106.82C50.2673 108.778 46.5903 102.213 50.3824 102.516C47.3895 97.6482 47.0733 100.755 44.5876 103.017C44.0115 103.18 50.9266 106.235 46.587 107.743C50.4044 108.335 50.5162 111.683 51.2945 113.801C53.5885 116.196 53.1159 111.156 55.8649 114.036C54.1244 111.47 46.6586 106.808 52.6703 108.303C52.6373 105.723 51.582 103.641 53.426 103.691C55.2524 100.383 51.5137 111.853 55.6269 107.646C56.7643 107.149 57.0496 104.334 59.0952 107.913C62.0661 110.843 60.1687 112.963 55.9761 110.28C56.7252 112.83 61.5836 113.739 60.6688 117.727C61.6371 121.233 62.992 119.941 64.1729 119.739C65.0982 123.145 65.6253 120.641 65.6682 119.018C69.907 119.928 68.9129 122.438 70.2414 124.192C73.1621 125.512 66.0604 115.24 71.0741 121.103C76.3495 125.876 73.0547 127.868 68.3191 127.103C71.3154 126.861 72.2798 131.162 76.0301 131.011C79.4477 132.641 81.7637 138.897 75.8714 136.292C73.8291 134.445 66.593 132.168 72.504 135.679C77.9567 138.212 82.293 139.723 87.5546 142.902C91.3186 145.594 92.9456 148.677 94.3722 149.288C91.2068 150.803 84.8359 148.079 89.5677 147.246C86.6144 146.708 83.2943 145.211 86.1209 148.895C88.5267 150.908 94.6387 150.695 95.7375 150.922C94.8084 152.972 93.2133 153.134 95.7734 153.293C92.917 154.819 96.6915 155.057 96.9542 155.926ZM91.1126 139.399C89.3733 137.577 88.9233 134.168 90.8031 137.132C91.7686 137.522 93.8902 142.708 91.1126 139.399ZM110.14 151.507C110.172 152.332 111.224 151.435 110.14 151.507V151.507ZM88.3692 134.933C88.2998 132.179 88.9949 137.057 88.3692 134.933V134.933ZM86.4778 132.385C84.2885 128.153 89.2328 133.583 86.4778 132.385V132.385ZM63.5571 116.54C64.191 118.74 64.8432 116.196 63.5571 116.54V116.54ZM81.7995 126.443C82.5882 123.473 82.7254 128.933 81.7995 126.443V126.443ZM68.9129 117.466C68.0057 115.829 70.8114 119.004 68.9129 117.466V117.466ZM79.9698 121.017C77.8989 116.37 81.4393 118.476 80.4308 121.778L79.9698 121.017ZM60.8996 108.277C59.9743 106.751 58.4431 102.277 58.9366 100.911C59.3794 103.136 63.6584 110.485 61.0323 103.956C58.1335 98.4824 64.5011 105.73 65.1565 107.098C65.4628 108.455 63.3665 106.726 64.7853 109.912C62.1961 106.286 63.258 111.914 60.8996 108.277ZM55.0073 104.208C55.2486 100.661 56.3545 106.639 55.0073 104.208V104.208ZM57.6582 105.124C58.9223 102.448 59.8008 108.855 57.6582 105.124V105.124ZM51.2796 100.182C49.0859 97.9947 47.4974 95.9819 51.3837 98.8245C52.8785 98.8824 48.0565 94.2467 51.7445 97.3524C55.6192 98.0603 53.6562 103.721 51.2796 100.182ZM54.6289 100.095C55.3064 101.34 55.9045 98.8289 54.6289 100.095V100.095ZM56.6927 100.755C54.7584 97.129 59.0374 102.278 56.6927 100.755V100.755ZM52.5943 96.8338C46.2163 91.1432 60.6076 99.806 53.6353 97.8865L52.5943 96.8338ZM70.872 107.469C68.1098 105.813 70.1373 95.7982 71.0813 102.646C73.7647 101.776 70.9326 106.185 72.9319 106.142C72.6191 108.922 71.7224 109.923 70.872 107.469ZM77.6323 111.474C77.9022 108.455 78.2012 113.538 77.6323 111.474V111.474ZM76.4586 110.308C76.4872 111.827 76.7609 109.021 76.4586 110.308V110.308ZM53.8435 94.9645C49.7457 89.2998 65.7541 100.693 56.4696 96.4007C55.5003 96.1447 54.3304 96.0542 53.8435 94.9645ZM66.8634 101.878C66.4751 97.108 67.7281 102.667 66.8634 101.878V101.878ZM76.7461 108.23C76.8045 110.028 77.5095 105.514 76.7461 108.23V108.23ZM54.4742 92.8033C56.9092 92.2803 64.5656 97.0859 57.5354 94.1744C56.7544 93.3082 55.0866 93.7021 54.4742 92.8033ZM75.3879 103.244C75.6484 98.3671 76.8441 100.333 75.3989 103.945L75.3879 103.244ZM56.2857 91.1045C57.2793 89.6463 53.6485 84.5129 56.8073 89.2639C58.1732 90.3497 60.758 91.0825 58.475 91.5404C62.0656 94.7124 57.6004 92.3995 56.2857 91.1045ZM74.354 101.722C74.9599 104.976 75.0392 96.1662 74.354 101.722V101.722ZM54.2109 85.9739C54.6141 86.9869 54.971 85.6484 54.2109 85.9739V85.9739ZM58.9256 88.7845C60.1384 86.2332 61.1617 91.627 58.9256 88.7845V88.7845ZM72.2187 96.191C72.2076 95.2133 72.4704 97.6162 72.2187 96.191V96.191ZM71.4476 94.485C69.6035 89.9244 73.166 96.8983 71.4476 94.485V94.485ZM70.3163 91.4935C70.0078 89.6099 71.3683 93.8605 70.3163 91.4935V91.4935ZM72.1603 88.492C70.8929 86.258 73.7603 78.6424 74.0808 83.3653C72.7441 87.0454 73.6953 89.1023 74.6239 84.1664C76.3462 80.2844 74.2532 91.8334 72.1603 88.492ZM74.055 77.167C74.1778 77.9853 74.6068 76.4884 74.055 77.167V77.167ZM70.8902 139.629C70.1406 138.973 70.9866 140.045 70.8902 139.629V139.629ZM77.4087 142.931C81.035 143.866 81.0174 142.368 77.7391 141.92C75.9783 140.279 70.4137 138.536 75.395 141.718C75.7233 142.556 76.7643 142.534 77.4087 142.931ZM64.5369 134.365C66.5318 135.86 72.06 138.594 67.3817 134.936C68.9591 133.099 64.3634 132.122 65.8874 130.892C62.0083 128.514 62.8251 128.727 65.5454 128.803C60.8847 126.713 66.2185 126.872 65.9667 125.801C64.1695 125.447 57.038 122.625 61.2339 126.032C56.9697 123.856 60.2177 126.843 58.9289 126.53C54.5667 125.339 62.8119 129.857 58.2371 128.734C60.7371 130.718 64.9687 133.821 59.2924 130.834C58.5472 131.912 63.356 133.547 64.5369 134.365ZM71.3539 138.291C67.2875 135.019 79.6415 140.965 71.3539 138.291V138.291ZM106.254 159.469C105.122 160.876 106.362 157.82 106.254 159.469V159.469ZM109.841 160.981C111.753 159.127 109.92 163.939 113.01 160.527C113.042 158.084 112.916 156.641 109.459 159.61C108.504 160.14 108.08 162.387 109.841 160.981ZM52.9 125.16C48.7829 122.857 52.3123 122.847 52.9 125.16V125.16ZM56.7279 127.673C51.6531 125.534 55.3053 125.311 56.7279 127.673V127.673ZM78.5212 140.838C80.6506 142.733 88.2926 142.228 81.1044 141.073C80.0414 139.497 74.3474 139.876 78.5212 140.838ZM108.475 159.373C105.303 160.599 111.749 156.62 108.475 159.373V159.373ZM115.286 164.059C113.875 164.445 115.307 163.175 115.286 164.059V164.059ZM115.297 162.821C111.786 163.049 118.924 158.976 115.297 162.821V162.821ZM43.4778 117.258C40.3879 112.841 41.5583 110.857 38.5764 107.249C38.0102 104.489 33.4624 98.233 36.2246 104.861C38.7527 108.739 39.5012 114.742 43.4778 117.258ZM114.159 161.598C111.422 159.718 120.833 157.279 114.159 161.598V161.598ZM119.252 163.597C117.138 162.997 122.594 160.724 119.252 163.597V163.597ZM51.7649 120.277C49.2946 120.093 52.7199 118.852 51.7649 120.277V120.277ZM118.189 162.233C121.423 160.144 117.444 160.465 117.602 162.424L118.189 162.233ZM74.2929 134.517C72.5827 134.636 74.1816 133.103 74.2929 134.517V134.517ZM77.0049 136.08C75.6798 136.354 76.1408 134.333 77.0049 136.08V136.08ZM123.379 163.644C127.524 160.649 120.869 163.07 122.511 164.214L123.379 163.644ZM121.791 162.875C118.229 164.131 125.169 160.043 121.791 162.875V162.875ZM129.901 168.283C127.146 167.792 132.167 166.764 129.901 168.283V168.283ZM53.8435 119.249C56.8794 119.93 65.9838 126.742 60.6143 119.722C57.8631 118.906 59.5127 112.17 56.707 113.361C58.5907 116.514 58.2547 117.852 54.3001 115.868C49.3343 113.436 51.5093 117.07 52.4825 118.073C51.1562 118.376 54.2324 119.224 53.843 119.248L53.8435 119.249ZM40.0024 108.299C40.546 106.044 34.9925 95.9025 37.3807 103.216C38.241 104.749 38.1518 107.653 40.0024 108.299ZM65.4077 123.989C63.8413 122.68 65.3322 123.802 65.4077 123.989V123.989ZM69.2577 124.889C65.0012 123.918 69.2577 122.5 69.2577 124.889V124.889ZM102.645 145.969C100.128 145.933 102.008 144.337 102.645 145.969V145.969ZM104.248 147.141C103.321 147.318 104.009 146.228 104.248 147.141V147.141ZM117.48 155.493C115.891 155.371 118.751 154.552 117.48 155.493V155.493ZM46.9141 110.067C43.013 109.06 50.5548 108.656 46.9141 110.067V110.067ZM99.7054 143.381C97.3827 143.97 99.663 141.022 99.7054 143.381V143.381ZM45.4766 106.708C43.312 106.189 47.8141 105.919 45.4766 106.708V106.708ZM52.2622 110.002C51.5457 110.298 52.222 109.226 52.2622 110.002V110.002ZM135.045 160.854C138.052 160.245 144.906 162.388 146.011 160.058C142.359 159.967 133.381 157.474 132.955 160.649L133.755 160.775L135.045 160.854H135.045ZM54.4191 110.547C52.5574 110.457 54.4742 108.154 54.4191 110.547V110.547ZM36.5782 98.1464C33.4949 97.4567 35.768 93.589 36.5782 98.1464V98.1464ZM40.8313 99.2179C36.9373 97.9009 40.8858 97.753 40.8313 99.2179V99.2179ZM43.2625 100.416C42.5602 99.8452 42.715 101.133 43.2625 100.416V100.416ZM58.5654 110.247C56.8585 109.757 59.2863 109.583 58.5654 110.247V110.247ZM41.6454 97.7171C36.7148 97.2013 41.2317 94.2754 41.6454 97.7171V97.7171ZM32.9182 92.0452C32.0678 92.6439 32.7954 90.4579 32.9182 92.0452V92.0452ZM34.2181 91.0648C33.1017 91.3021 34.006 89.1806 34.2181 91.0648V91.0648ZM41.3865 95.3502C44.4191 94.1595 35.8644 92.8822 40.7669 95.1267L41.3865 95.3502ZM137.347 154.728C134.883 154.177 139.288 152.946 137.347 154.728V154.728ZM148.94 160.746C146.981 161.05 149.718 158.445 148.94 160.746V160.746ZM42.119 91.5873C39.7138 92.0309 42.4401 89.3583 42.119 91.5873V91.5873ZM31.9169 84.7402C31.3695 81.5942 31.4449 76.0702 36.6856 77.9356C29.6907 79.3282 41.5297 86.6476 40.0349 80.8681C42.9772 81.0132 45.7905 79.1263 44.2451 81.9865C50.0437 81.3481 54.06 76.3118 59.6598 77.0192C64.0208 76.4387 68.7895 76.0018 73.4899 74.2412C77.3541 73.9631 81.0741 69.7958 78.9575 67.3245C73.6881 66.8776 68.1699 67.5375 62.3465 68.6995C55.893 70.0413 50.0299 72.5953 43.5175 73.6927C37.1675 74.5479 44.7925 76.0448 42.9733 76.3803C39.6631 77.5312 46.9246 78.3069 42.5448 79.5224C39.8405 79.0071 37.0238 78.0763 38.1799 75.2188C32.1003 76.0122 26.7556 78.5376 31.5606 84.7358L31.9175 84.7391L31.9169 84.7402ZM46.5721 77.2641C47.9948 72.0044 54.207 81.5942 48.9058 77.9643C48.2751 77.4876 47.2303 77.1014 46.5721 77.2641ZM46.8486 74.7129C47.9402 75.5758 48.9058 73.1802 46.8486 74.7129V74.7129ZM49.4598 74.757C49.6482 72.336 55.443 76.0376 50.4149 75.6266L49.4598 74.757ZM53.0328 73.3175C53.4117 74.6737 54.3403 71.787 53.0328 73.3175V73.3175ZM53.9482 72.7046C56.1232 70.0888 66.2543 71.0333 58.8385 72.4475C56.8502 70.9467 55.3273 73.3313 53.9482 72.7046ZM67.1724 70.662C66.8452 63.5142 73.7454 73.1984 67.1724 70.662V70.662ZM70.926 70.64C72.2974 67.0399 76.252 69.1938 71.5632 69.915C71.6635 70.3012 71.4228 71.7771 70.926 70.64ZM40.6402 89.7401C36.289 87.5579 44.738 87.2253 40.6402 89.7401V89.7401ZM43.6722 90.5809C40.546 89.9602 45.1098 89.0515 43.6722 90.5809V90.5809ZM34.7408 84.2348C31.9676 83.5496 37.0816 82.4306 34.7408 84.2348V84.2348ZM155.783 160.09C153.993 161.031 155.851 157.997 155.783 160.09V160.09ZM143.483 151.679C141.902 151.889 143.832 149.274 143.483 151.679V151.679ZM159.164 160.902C162.439 160.913 169.086 159.88 161.962 159.884C160.843 160.058 155.448 160.022 159.164 160.902ZM46.338 89.1045C48.9889 88.9241 50.4832 86.178 45.8225 86.3336C38.6018 85.5871 52.1934 88.8126 44.8972 87.889C43.9179 88.5384 46.2796 89.2849 46.338 89.1045ZM48.6717 90.2885C47.8499 91.1934 48.3941 88.5853 48.6717 90.2885V90.2885ZM51.441 82.8919C49.8492 82.5095 52.5899 81.4629 51.441 82.8919V82.8919ZM42.6241 68.1328C47.357 66.524 53.8253 64.7126 56.0588 68.9274C53.7857 66.1891 55.1406 63.49 57.287 67.4983C60.3229 71.5503 61.8419 65.655 59.8685 64.2944C62.1201 67.0939 64.6768 68.4186 61.3738 64.4721C64.9649 60.1459 54.1888 65.0381 51.7401 64.9874C50.5625 65.517 39.5733 67.7941 42.6241 68.1328ZM45.3973 62.8157C48.0956 60.7776 54.7292 64.0312 50.4722 60.7875C50.0547 60.4201 41.1519 63.2483 45.3973 62.8157ZM55.2337 63.2229C58.3886 63.3024 53.8727 58.9729 57.6323 60.9354C57.0166 58.9155 53.2531 58.5364 51.4129 57.7287C50.3719 59.5759 53.5296 63.2483 55.2337 63.2229ZM47.1223 54.2787C45.2067 55.0329 48.214 52.7961 47.1223 54.2787V54.2787ZM51.143 55.2414C56.2311 54.5672 49.8454 53.0483 50.1153 55.1879L51.143 55.2414ZM43.6359 49.361C40.052 44.6745 50.3747 50.1478 46.7329 45.2406C43.6684 42.7986 40.7261 47.9938 43.6359 49.361ZM89.6096 74.1656C91.2531 71.2496 82.8284 70.2328 88.5041 73.1327C89.0263 73.3065 88.9084 74.367 89.6096 74.1656Z"/>
</g>
<g filter="url(#filter8_d_8_2)">
<mask id="mask0_8_2" style="mask-type:luminance" maskUnits="userSpaceOnUse" x="141" y="130" width="30" height="19">
<path d="M141 130H171V148.053H141V130Z" fill="white"/>
</mask>
<g mask="url(#mask0_8_2)">
<path fill-rule="evenodd" clip-rule="evenodd" d="M156 130C152 130 149.5 132.006 148.5 136.018C150 134.012 151.75 133.26 153.75 133.761C154.891 134.047 155.707 134.878 156.609 135.796C158.08 137.294 159.782 139.026 163.5 139.026C167.5 139.026 170 137.021 171 133.009C169.5 135.015 167.75 135.767 165.75 135.265C164.609 134.98 163.793 134.149 162.891 133.23C161.42 131.733 159.718 130 156 130ZM148.5 139.026C144.5 139.026 142 141.032 141 145.044C142.5 143.038 144.25 142.286 146.25 142.787C147.391 143.074 148.207 143.904 149.109 144.823C150.58 146.32 152.282 148.053 156 148.053C160 148.053 162.5 146.047 163.5 142.035C162 144.041 160.25 144.793 158.25 144.292C157.109 144.006 156.293 143.175 155.391 142.256C153.92 140.759 152.218 139.026 148.5 139.026Z" fill="#38BDF8"/>
</g>
</g>
<g filter="url(#filter9_d_8_2)">
<path d="M80.7705 39.0001L77.9993 43.7508L75.228 39.0001H65.9995L77.9993 59.5713L89.999 39.0001H80.7705Z" fill="#41B883"/>
<path d="M80.7705 39.0001L77.9993 43.7508L75.228 39.0001H70.7994L77.9993 51.3426L85.1991 39.0001H80.7705Z" fill="#34495E"/>
</g>
<g filter="url(#filter10_d_8_2)">
<path d="M170.68 96.0821L171.485 97.5858C171.666 97.8632 171.862 98.1089 172.093 98.3378C172.767 99.008 173.407 99.71 173.982 100.462C175.345 102.243 176.265 104.221 176.922 106.36C177.316 107.667 177.53 109.008 177.546 110.363C177.612 114.415 176.215 117.895 173.399 120.787C172.939 121.244 172.447 121.668 171.919 122.045C171.64 122.045 171.508 121.832 171.393 121.636C171.18 121.277 171.048 120.867 170.983 120.46C170.883 119.969 170.819 119.479 170.851 118.973V118.744C170.828 118.695 170.582 96.1976 170.68 96.0824V96.0826L170.68 96.0821Z" fill="#599636"/>
<path d="M170.68 96.0322C170.647 95.9667 170.614 96.0162 170.581 96.0481C170.597 96.3762 170.482 96.6687 170.302 96.9481C170.104 97.2256 169.842 97.4386 169.579 97.6672C168.118 98.9252 166.968 100.445 166.047 102.144C164.822 104.432 164.19 106.883 164.011 109.464C163.929 110.394 164.307 113.679 164.602 114.627C165.407 117.143 166.853 119.251 168.726 121.081C169.186 121.521 169.678 121.93 170.187 122.323C170.335 122.323 170.351 122.192 170.385 122.094C170.449 121.885 170.499 121.672 170.533 121.456L170.862 119.006L170.68 96.0322H170.68Z" fill="#6CAC48"/>
<path d="M171.485 123.04C171.518 122.665 171.699 122.354 171.896 122.043C171.698 121.962 171.551 121.8 171.436 121.619C171.337 121.456 171.255 121.26 171.191 121.08C170.961 120.393 170.912 119.673 170.846 118.972V118.548C170.764 118.613 170.747 119.168 170.747 119.251C170.701 119.99 170.599 120.731 170.451 121.457C170.402 121.751 170.369 122.045 170.187 122.306C170.187 122.339 170.187 122.372 170.203 122.421C170.499 123.287 170.58 124.169 170.63 125.068V125.396C170.63 125.788 170.614 125.705 170.941 125.837C171.073 125.885 171.22 125.902 171.352 126C171.451 126 171.467 125.918 171.467 125.853L171.418 125.314V123.81C171.402 123.547 171.451 123.287 171.484 123.041L171.485 123.04Z" fill="#C2BFBF"/>
</g>
<g filter="url(#filter11_d_8_2)">
<path d="M103.761 49H108.756V71.8929C106.197 72.3768 104.314 72.5672 102.276 72.5672C96.1756 72.5609 93 69.8355 93 64.6011C93 59.5578 96.3684 56.2847 101.588 56.2847C102.398 56.2847 103.015 56.3485 103.761 56.5395V49ZM103.936 60.665C103.351 60.474 102.869 60.4103 102.252 60.4103C99.7255 60.4103 98.2663 61.9513 98.2663 64.6518C98.2663 67.2812 99.6613 68.733 102.22 68.733C102.773 68.733 103.222 68.7018 103.936 68.6063V60.665Z" fill="#2BA977"/>
<path d="M116.924 56.8994V68.3615C116.924 72.3089 116.628 74.2071 115.76 75.8437C114.95 77.4171 113.883 78.4093 111.678 79.5051L107.043 77.321C109.248 76.2963 110.315 75.3909 110.997 74.0091C111.71 72.5961 111.935 70.9595 111.935 66.6549V56.8995L116.924 56.8994ZM111.432 49H116.427V54.0752H111.432V49Z" fill="#2BA977"/>
</g>
<defs>
<filter id="filter0_d_8_2" x="87.8609" y="97.5375" width="64.2783" height="64.2783" filterUnits="userSpaceOnUse" color-interpolation-filters="sRGB">
<feFlood flood-opacity="0" result="BackgroundImageFix"/>
<feColorMatrix in="SourceAlpha" type="matrix" values="0 0 0 0 0 0 0 0 0 0 0 0 0 0 0 0 0 0 127 0" result="hardAlpha"/>
<feOffset/>
<feGaussianBlur stdDeviation="15"/>
<feComposite in2="hardAlpha" operator="out"/>
<feColorMatrix type="matrix" values="0 0 0 0 0.380392 0 0 0 0 0.854902 0 0 0 0 0.984314 0 0 0 1 0"/>
<feBlend mode="normal" in2="BackgroundImageFix" result="effect1_dropShadow_8_2"/>
<feBlend mode="normal" in="SourceGraphic" in2="effect1_dropShadow_8_2" result="shape"/>
</filter>
<filter id="filter1_d_8_2" x="78.0217" y="94.794" width="83.9565" height="69.7652" filterUnits="userSpaceOnUse" color-interpolation-filters="sRGB">
<feFlood flood-opacity="0" result="BackgroundImageFix"/>
<feColorMatrix in="SourceAlpha" type="matrix" values="0 0 0 0 0 0 0 0 0 0 0 0 0 0 0 0 0 0 127 0" result="hardAlpha"/>
<feOffset/>
<feGaussianBlur stdDeviation="15"/>
<feComposite in2="hardAlpha" operator="out"/>
<feColorMatrix type="matrix" values="0 0 0 0 0.380392 0 0 0 0 0.854902 0 0 0 0 0.984314 0 0 0 1 0"/>
<feBlend mode="normal" in2="BackgroundImageFix" result="effect1_dropShadow_8_2"/>
<feBlend mode="normal" in="SourceGraphic" in2="effect1_dropShadow_8_2" result="shape"/>
</filter>
<filter id="filter2_d_8_2" x="82.6186" y="88.9954" width="74.7628" height="81.3625" filterUnits="userSpaceOnUse" color-interpolation-filters="sRGB">
<feFlood flood-opacity="0" result="BackgroundImageFix"/>
<feColorMatrix in="SourceAlpha" type="matrix" values="0 0 0 0 0 0 0 0 0 0 0 0 0 0 0 0 0 0 127 0" result="hardAlpha"/>
<feOffset/>
<feGaussianBlur stdDeviation="15"/>
<feComposite in2="hardAlpha" operator="out"/>
<feColorMatrix type="matrix" values="0 0 0 0 0.380392 0 0 0 0 0.854902 0 0 0 0 0.984314 0 0 0 1 0"/>
<feBlend mode="normal" in2="BackgroundImageFix" result="effect1_dropShadow_8_2"/>
<feBlend mode="normal" in="SourceGraphic" in2="effect1_dropShadow_8_2" result="shape"/>
</filter>
<filter id="filter3_d_8_2" x="82.6186" y="88.9954" width="74.7628" height="81.3625" filterUnits="userSpaceOnUse" color-interpolation-filters="sRGB">
<feFlood flood-opacity="0" result="BackgroundImageFix"/>
<feColorMatrix in="SourceAlpha" type="matrix" values="0 0 0 0 0 0 0 0 0 0 0 0 0 0 0 0 0 0 127 0" result="hardAlpha"/>
<feOffset/>
<feGaussianBlur stdDeviation="15"/>
<feComposite in2="hardAlpha" operator="out"/>
<feColorMatrix type="matrix" values="0 0 0 0 0.380392 0 0 0 0 0.854902 0 0 0 0 0.984314 0 0 0 1 0"/>
<feBlend mode="normal" in2="BackgroundImageFix" result="effect1_dropShadow_8_2"/>
<feBlend mode="normal" in="SourceGraphic" in2="effect1_dropShadow_8_2" result="shape"/>
</filter>
<filter id="filter4_d_8_2" x="59.9938" y="55.9965" width="84.0006" height="89.0593" filterUnits="userSpaceOnUse" color-interpolation-filters="sRGB">
<feFlood flood-opacity="0" result="BackgroundImageFix"/>
<feColorMatrix in="SourceAlpha" type="matrix" values="0 0 0 0 0 0 0 0 0 0 0 0 0 0 0 0 0 0 127 0" result="hardAlpha"/>
<feOffset/>
<feGaussianBlur stdDeviation="15"/>
<feComposite in2="hardAlpha" operator="out"/>
<feColorMatrix type="matrix" values="0 0 0 0 1 0 0 0 0 0.243137 0 0 0 0 0 0 0 0 1 0"/>
<feBlend mode="normal" in2="BackgroundImageFix" result="effect1_dropShadow_8_2"/>
<feBlend mode="normal" in="SourceGraphic" in2="effect1_dropShadow_8_2" result="shape"/>
</filter>
<filter id="filter5_d_8_2" x="90" y="46" width="88.1552" height="88.5963" filterUnits="userSpaceOnUse" color-interpolation-filters="sRGB">
<feFlood flood-opacity="0" result="BackgroundImageFix"/>
<feColorMatrix in="SourceAlpha" type="matrix" values="0 0 0 0 0 0 0 0 0 0 0 0 0 0 0 0 0 0 127 0" result="hardAlpha"/>
<feOffset/>
<feGaussianBlur stdDeviation="15"/>
<feComposite in2="hardAlpha" operator="out"/>
<feColorMatrix type="matrix" values="0 0 0 0 0.352941 0 0 0 0 0.623529 0 0 0 0 0.831373 0 0 0 1 0"/>
<feBlend mode="normal" in2="BackgroundImageFix" result="effect1_dropShadow_8_2"/>
<feBlend mode="normal" in="SourceGraphic" in2="effect1_dropShadow_8_2" result="shape"/>
</filter>
<filter id="filter6_d_8_2" x="99.8191" y="55.8621" width="88.2125" height="88.8156" filterUnits="userSpaceOnUse" color-interpolation-filters="sRGB">
<feFlood flood-opacity="0" result="BackgroundImageFix"/>
<feColorMatrix in="SourceAlpha" type="matrix" values="0 0 0 0 0 0 0 0 0 0 0 0 0 0 0 0 0 0 127 0" result="hardAlpha"/>
<feOffset/>
<feGaussianBlur stdDeviation="15"/>
<feComposite in2="hardAlpha" operator="out"/>
<feColorMatrix type="matrix" values="0 0 0 0 1 0 0 0 0 0.831373 0 0 0 0 0.231373 0 0 0 1 0"/>
<feBlend mode="normal" in2="BackgroundImageFix" result="effect1_dropShadow_8_2"/>
<feBlend mode="normal" in="SourceGraphic" in2="effect1_dropShadow_8_2" result="shape"/>
</filter>
<filter id="filter7_d_8_2" x="7" y="24" width="181" height="166" filterUnits="userSpaceOnUse" color-interpolation-filters="sRGB">
<feFlood flood-opacity="0" result="BackgroundImageFix"/>
<feColorMatrix in="SourceAlpha" type="matrix" values="0 0 0 0 0 0 0 0 0 0 0 0 0 0 0 0 0 0 127 0" result="hardAlpha"/>
<feOffset/>
<feGaussianBlur stdDeviation="10"/>
<feComposite in2="hardAlpha" operator="out"/>
<feColorMatrix type="matrix" values="0 0 0 0 1 0 0 0 0 1 0 0 0 0 1 0 0 0 0.5 0"/>
<feBlend mode="normal" in2="BackgroundImageFix" result="effect1_dropShadow_8_2"/>
<feBlend mode="normal" in="SourceGraphic" in2="effect1_dropShadow_8_2" result="shape"/>
</filter>
<filter id="filter8_d_8_2" x="111" y="100" width="90" height="78.0528" filterUnits="userSpaceOnUse" color-interpolation-filters="sRGB">
<feFlood flood-opacity="0" result="BackgroundImageFix"/>
<feColorMatrix in="SourceAlpha" type="matrix" values="0 0 0 0 0 0 0 0 0 0 0 0 0 0 0 0 0 0 127 0" result="hardAlpha"/>
<feOffset/>
<feGaussianBlur stdDeviation="15"/>
<feComposite in2="hardAlpha" operator="out"/>
<feColorMatrix type="matrix" values="0 0 0 0 0.219608 0 0 0 0 0.741176 0 0 0 0 0.972549 0 0 0 1 0"/>
<feBlend mode="normal" in2="BackgroundImageFix" result="effect1_dropShadow_8_2"/>
<feBlend mode="normal" in="SourceGraphic" in2="effect1_dropShadow_8_2" result="shape"/>
</filter>
<filter id="filter9_d_8_2" x="35.9995" y="9.0001" width="83.9994" height="80.5712" filterUnits="userSpaceOnUse" color-interpolation-filters="sRGB">
<feFlood flood-opacity="0" result="BackgroundImageFix"/>
<feColorMatrix in="SourceAlpha" type="matrix" values="0 0 0 0 0 0 0 0 0 0 0 0 0 0 0 0 0 0 127 0" result="hardAlpha"/>
<feOffset/>
<feGaussianBlur stdDeviation="15"/>
<feComposite in2="hardAlpha" operator="out"/>
<feColorMatrix type="matrix" values="0 0 0 0 0.254902 0 0 0 0 0.721569 0 0 0 0 0.513726 0 0 0 1 0"/>
<feBlend mode="normal" in2="BackgroundImageFix" result="effect1_dropShadow_8_2"/>
<feBlend mode="normal" in="SourceGraphic" in2="effect1_dropShadow_8_2" result="shape"/>
</filter>
<filter id="filter10_d_8_2" x="134" y="66" width="73.5484" height="89.9998" filterUnits="userSpaceOnUse" color-interpolation-filters="sRGB">
<feFlood flood-opacity="0" result="BackgroundImageFix"/>
<feColorMatrix in="SourceAlpha" type="matrix" values="0 0 0 0 0 0 0 0 0 0 0 0 0 0 0 0 0 0 127 0" result="hardAlpha"/>
<feOffset/>
<feGaussianBlur stdDeviation="15"/>
<feComposite in2="hardAlpha" operator="out"/>
<feColorMatrix type="matrix" values="0 0 0 0 0.423529 0 0 0 0 0.67451 0 0 0 0 0.282353 0 0 0 1 0"/>
<feBlend mode="normal" in2="BackgroundImageFix" result="effect1_dropShadow_8_2"/>
<feBlend mode="normal" in="SourceGraphic" in2="effect1_dropShadow_8_2" result="shape"/>
</filter>
<filter id="filter11_d_8_2" x="63" y="19" width="84" height="90.5655" filterUnits="userSpaceOnUse" color-interpolation-filters="sRGB">
<feFlood flood-opacity="0" result="BackgroundImageFix"/>
<feColorMatrix in="SourceAlpha" type="matrix" values="0 0 0 0 0 0 0 0 0 0 0 0 0 0 0 0 0 0 127 0" result="hardAlpha"/>
<feOffset/>
<feGaussianBlur stdDeviation="15"/>
<feComposite in2="hardAlpha" operator="out"/>
<feColorMatrix type="matrix" values="0 0 0 0 0.172549 0 0 0 0 0.662745 0 0 0 0 0.470588 0 0 0 1 0"/>
<feBlend mode="normal" in2="BackgroundImageFix" result="effect1_dropShadow_8_2"/>
<feBlend mode="normal" in="SourceGraphic" in2="effect1_dropShadow_8_2" result="shape"/>
</filter>
<linearGradient id="paint0_linear_8_2" x1="120" y1="76" x2="141.257" y2="94.008" gradientUnits="userSpaceOnUse">
<stop stop-color="#5A9FD4"/>
<stop offset="1" stop-color="#306998"/>
</linearGradient>
<linearGradient id="paint1_linear_8_2" x1="143.925" y1="109.57" x2="136.278" y2="98.916" gradientUnits="userSpaceOnUse">
<stop stop-color="#FFD43B"/>
<stop offset="1" stop-color="#FFE873"/>
</linearGradient>
</defs>
<style>
  #flask {
    fill: #222;
  }
  @media (prefers-color-scheme: dark) {
    #flask {
      fill: white;
    }
  }
</style>
</svg>
